HIERARCHY
ROOT HumanoidRoot
{
	OFFSET 0 0 0
	CHANNELS 6 Xposition Yposition Zposition Xrotation Yrotation Zrotation
	JOINT sacroiliac
	{
		OFFSET 0 -1.1353 0
		CHANNELS 3 Xrotation Yrotation Zrotation
		JOINT l_hip
		{
			OFFSET 10.2798 -17.1357 -5.3785
			CHANNELS 3 Xrotation Yrotation Zrotation
			JOINT l_knee
			{
				OFFSET -0.3099 -38.5987 -1.59158
				CHANNELS 3 Xrotation Yrotation Zrotation
				JOINT l_ankle
				{
					OFFSET -0.6125 -40.5942 -1.6968
					CHANNELS 3 Xrotation Yrotation Zrotation
					JOINT l_subtalar
					{
						OFFSET 0 -3.6398 1.4964
						CHANNELS 3 Xrotation Yrotation Zrotation
						End Site
						{
							OFFSET 1.0394 -1.5439 8.5199
						}
					}
					End Site
					{
						OFFSET 0 -5.04336 -1.13392
					}
				}
			}
		}
		JOINT r_hip
		{
			OFFSET -10.2798 -17.1357 -5.3785
			CHANNELS 3 Xrotation Yrotation Zrotation
			JOINT r_knee
			{
				OFFSET 0.3099 -38.5987 -1.59158
				CHANNELS 3 Xrotation Yrotation Zrotation
				JOINT r_ankle
				{
					OFFSET 0.6125 -40.5942 -1.6968
					CHANNELS 3 Xrotation Yrotation Zrotation
					JOINT r_subtalar
					{
						OFFSET 0 -3.6398 1.4964
						CHANNELS 3 Xrotation Yrotation Zrotation
						End Site
						{
							OFFSET -1.0394 -1.5439 8.5199
						}
					}
					End Site
					{
						OFFSET 0 -5.043 -1.134
					}
				}
			}
		}
	}
	JOINT vl5
	{
		OFFSET 0 -0.6353 0
		CHANNELS 3 Xrotation Yrotation Zrotation
		JOINT vl4
		{
			OFFSET 0 0.7 0
			CHANNELS 3 Xrotation Yrotation Zrotation
			JOINT vl3
			{
				OFFSET 0 0.8 0
				CHANNELS 3 Xrotation Yrotation Zrotation
				JOINT vl2
				{
					OFFSET 0 1.897 0.0486
					CHANNELS 3 Xrotation Yrotation Zrotation
					JOINT vl1
					{
						OFFSET 0 2.045 0.0003
						CHANNELS 3 Xrotation Yrotation Zrotation
						JOINT vt12
						{
							OFFSET 0 2.238 0.0006
							CHANNELS 3 Xrotation Yrotation Zrotation
							JOINT vt11
							{
								OFFSET 0 2.5 -0.1351
								CHANNELS 3 Xrotation Yrotation Zrotation
								JOINT vt10
								{
									OFFSET 0 2.5 -0.1178
									CHANNELS 3 Xrotation Yrotation Zrotation
									JOINT vt9
									{
										OFFSET 0 2.849 -0.2703
										CHANNELS 3 Xrotation Yrotation Zrotation
										JOINT vt8
										{
											OFFSET 0 2.675 -0.5349
											CHANNELS 3 Xrotation Yrotation Zrotation
											JOINT vt7
											{
												OFFSET 0 2.566 -0.5733
												CHANNELS 3 Xrotation Yrotation Zrotation
												JOINT vt6
												{
													OFFSET 0 2.556 -0.3506
													CHANNELS 3 Xrotation Yrotation Zrotation
													JOINT vt5
													{
														OFFSET 0 2.283 -0.2607
														CHANNELS 3 Xrotation Yrotation Zrotation
														JOINT vt4
														{
															OFFSET 0 2.199 -0.1623
															CHANNELS 3 Xrotation Yrotation Zrotation
															JOINT vt3
															{
																OFFSET 0 2.052 -0.0347
																CHANNELS 3 Xrotation Yrotation Zrotation
																JOINT vt2
																{
																	OFFSET 0 2.019 0.2072
																	CHANNELS 3 Xrotation Yrotation Zrotation
																	JOINT vt1
																	{
																		OFFSET 0 2.243 0.3126
																		CHANNELS 3 Xrotation Yrotation Zrotation
																		JOINT vc7
																		{
																			OFFSET 0 2.848 0.4338
																			CHANNELS 3 Xrotation Yrotation Zrotation
																			JOINT vc6
																			{
																				OFFSET 0 3.185 0.629
																				CHANNELS 3 Xrotation Yrotation Zrotation
																				JOINT vc5
																				{
																					OFFSET 0 2.973 0.7817
																					CHANNELS 3 Xrotation Yrotation Zrotation
																					JOINT vc4
																					{
																						OFFSET 0 2.995 0.7979
																						CHANNELS 3 Xrotation Yrotation Zrotation
																						JOINT vc3
																						{
																							OFFSET 0 3.26 0.4094
																							CHANNELS 3 Xrotation Yrotation Zrotation
																							JOINT vc2
																							{
																								OFFSET 0 3.443 -0.0721
																								CHANNELS 3 Xrotation Yrotation Zrotation
																								JOINT vc1
																								{
																									OFFSET 0 3.976 -0.4291
																									CHANNELS 3 Xrotation Yrotation Zrotation
																									End Site
																									{
																										OFFSET 0 3.859 -0.8628
																									}
																								}
																							}
																						}
																					}
																				}
																			}
																		}
																		JOINT l_sternoclavicular
																		{
																			OFFSET 3.3 4.549 6.42398
																			CHANNELS 3 Xrotation Yrotation Zrotation
																			JOINT l_shoulder
																			{
																				OFFSET 14.44 2.12 -6.58801
																				CHANNELS 3 Xrotation Yrotation Zrotation
																				JOINT l_elbow
																				{
																					OFFSET 4.102 -29.661 -2.1
																					CHANNELS 3 Xrotation Yrotation Zrotation
																					JOINT l_wrist
																					{
																						OFFSET -0.02 -26.127 3.336
																						CHANNELS 3 Xrotation Yrotation Zrotation
																						JOINT l_thumb1
																						{
																							OFFSET -2.3749 -2.345 3.1384
																							CHANNELS 3 Xrotation Yrotation Zrotation
																							End Site
																							{
																								OFFSET -0.3096 -2.4682 3.5659
																							}
																						}
																						JOINT l_index0
																						{
																							OFFSET -0.8951 -2.5867 1.672
																							CHANNELS 3 Xrotation Yrotation Zrotation
																							JOINT l_index1
																							{
																								OFFSET -0.9452 -6.7163 2.3003
																								CHANNELS 3 Xrotation Yrotation Zrotation
																								End Site
																								{
																									OFFSET 0 -4.1184 0
																								}
																							}
																						}
																						JOINT l_middle0
																						{
																							OFFSET -0.4247 -2.6874 0.6936
																							CHANNELS 3 Xrotation Yrotation Zrotation
																							JOINT l_middle1
																							{
																								OFFSET -0.8832 -6.9793 1.0551
																								CHANNELS 3 Xrotation Yrotation Zrotation
																								End Site
																								{
																									OFFSET 0 -4.8639 0
																								}
																							}
																						}
																						JOINT l_ring0
																						{
																							OFFSET -0.2548 -2.6533 -0.1292
																							CHANNELS 3 Xrotation Yrotation Zrotation
																							JOINT l_ring1
																							{
																								OFFSET -1.0013 -6.8347 0
																								CHANNELS 3 Xrotation Yrotation Zrotation
																								End Site
																								{
																									OFFSET 0 -3.9095 0
																								}
																							}
																						}
																						JOINT l_pinky0
																						{
																							OFFSET -0.3139 -2.5773 -0.9018
																							CHANNELS 3 Xrotation Yrotation Zrotation
																							JOINT l_pinky1
																							{
																								OFFSET -1.0029 -6.1169 -1.2064
																								CHANNELS 3 Xrotation Yrotation Zrotation
																								End Site
																								{
																									OFFSET 0 -2.8524 0
																								}
																							}
																						}
																					}
																				}
																			}
																		}
																		JOINT r_sternoclavicular
																		{
																			OFFSET -3.3 4.549 6.42398
																			CHANNELS 3 Xrotation Yrotation Zrotation
																			JOINT r_shoulder
																			{
																				OFFSET -14.44 2.12 -6.58801
																				CHANNELS 3 Xrotation Yrotation Zrotation
																				JOINT r_elbow
																				{
																					OFFSET -4.1016 -29.661 -2.0997
																					CHANNELS 3 Xrotation Yrotation Zrotation
																					JOINT r_wrist
																					{
																						OFFSET 0.0198 -26.1267 3.3363
																						CHANNELS 3 Xrotation Yrotation Zrotation
																						JOINT r_thumb1
																						{
																							OFFSET 2.3568 -2.3387 3.1372
																							CHANNELS 3 Xrotation Yrotation Zrotation
																							End Site
																							{
																								OFFSET 0.3164 -2.4748 3.5608
																							}
																						}
																						JOINT r_index0
																						{
																							OFFSET 0.8951 -2.5867 1.672
																							CHANNELS 3 Xrotation Yrotation Zrotation
																							JOINT r_index1
																							{
																								OFFSET 0.9336 -6.7114 2.2917
																								CHANNELS 3 Xrotation Yrotation Zrotation
																								End Site
																								{
																									OFFSET 0 -4.1193 0
																								}
																							}
																						}
																						JOINT r_middle0
																						{
																							OFFSET 0.4247 -2.6874 0.6936
																							CHANNELS 3 Xrotation Yrotation Zrotation
																							JOINT r_middle1
																							{
																								OFFSET 0.8717 -6.9725 1.0462
																								CHANNELS 3 Xrotation Yrotation Zrotation
																								End Site
																								{
																									OFFSET 0 -4.8637 0
																								}
																							}
																						}
																						JOINT r_ring0
																						{
																							OFFSET 0.2548 -2.6533 -0.1292
																							CHANNELS 3 Xrotation Yrotation Zrotation
																							JOINT r_ring1
																							{
																								OFFSET 0.9866 -6.8264 -0.0079
																								CHANNELS 3 Xrotation Yrotation Zrotation
																								End Site
																								{
																									OFFSET 0 -3.9086 0
																								}
																							}
																						}
																						JOINT r_pinky0
																						{
																							OFFSET 0.3139 -2.5773 -0.9018
																							CHANNELS 3 Xrotation Yrotation Zrotation
																							JOINT r_pinky1
																							{
																								OFFSET 0.9908 -6.1065 -1.2061
																								CHANNELS 3 Xrotation Yrotation Zrotation
																								End Site
																								{
																									OFFSET 0 -2.8628 0
																								}
																							}
																						}
																					}
																				}
																			}
																		}
																	}
																}
															}
														}
													}
												}
											}
										}
									}
								}
							}
						}
					}
				}
			}
		}
	}
}
MOTION
Frames: 7
Frame Time: 0.0416667
1.57239 103.074 1.70776 -3.47008 0.641687 -0.198451 -0 0 -0 -0.364543 0.858806 4.30574 1.01902 -7.18575 -2.01002 -1.98732 -0.0864654 0.229322 -0 0 -0 -1.34481 -0.0935428 -4.11134 4.14904 7.45804 0.85333 -2.63732 -0.517578 4.07358 -0 0 -0 -0.0541661 -0.147741 0.140212 -0.09854 -0.299713 0.012863 -0.0985081 -0.299724 0.0128738 -0.098476 -0.299735 0.0128844 -0.0984438 -0.299747 0.0128948 -0.0984117 -0.299758 0.0129051 -0 0 -0 -0 0 -0 -0.0983794 -0.299769 0.0129151 -0 0 -0 -0.0983472 -0.29978 0.0129249 -0 0 -0 -0 0 -0 -0.0983149 -0.299792 0.0129346 -0 0 -0 -0 0 -0 -0.0982825 -0.299803 0.012944 -0 0 -0 -0 0 -0 -0 0 -0 3.31029 2.19331 -1.50748 -0 0 -0 -0 0 -0 -0 0 -0 -0 0 -0 -0.969154 7.47571 90.694 -0.74286 -9.57656 -1.28469 0.734498 -0.0478346 -2.68924 -0 0 -0 -0 0 -0 -0 0 -0 -0 0 -0 -0 0 -0 -0 0 -0 -0 0 -0 -0 0 -0 -0 0 -0 -0 0 -0 -2.44775 4.48557 -92.6695 2.94317 0.911785 0.186832 -0.612707 0.0212748 1.96758 -0 0 -0 -0 0 -0 -0 0 -0 -0 0 -0 -0 0 -0 -0 0 -0 -0 0 -0 -0 0 -0 -0 0 -0 
1.57142 103.07 1.70808 -3.45446 0.642478 -0.198542 0 0 0 -0.380509 0.863461 4.30601 1.02901 -7.25059 -2.02347 -2.04261 -0.0859068 0.20738 0 0 0 -1.37546 -0.12882 -4.11918 4.17863 7.45255 0.858912 -2.64872 -0.535872 4.20522 0 0 0 -0.0541661 -0.147741 0.140212 -0.101582 -0.299714 0.0128471 -0.101549 -0.299725 0.0128579 -0.101517 -0.299736 0.0128685 -0.101485 -0.299748 0.0128789 -0.101452 -0.299759 0.0128891 0 0 0 0 0 0 -0.10142 -0.29977 0.0128992 0 0 0 -0.101386 -0.299781 0.012909 0 0 0 0 0 0 -0.101354 -0.299793 0.0129187 0 0 0 0 0 0 -0.101321 -0.299804 0.0129281 0 0 0 0 0 0 0 0 0 3.29656 2.21063 -1.67146 0 0 0 0 0 0 0 0 0 0 0 0 -1.03357 7.51069 90.6891 -0.738961 -9.67099 -1.24999 0.728562 -0.0465819 -2.61289 0 0 0 0 0 0 0 0 0 0 0 0 0 0 0 0 0 0 0 0 0 0 0 0 0 0 0 0 0 0 -2.4307 4.52459 -92.7435 3.02794 1.07854 0.219915 -0.570712 0.0244112 1.7973 0 0 0 0 0 0 0 0 0 0 0 0 0 0 0 0 0 0 0 0 0 0 0 0 0 0 0 
1.56494 103.073 1.71584 -3.41743 0.572541 -0.200745 0 0 0 -0.41223 0.883533 4.30662 1.00522 -7.13478 -2.03592 -2.02498 -0.0845157 0.169869 0 0 0 -1.44762 -0.199188 -4.137 4.18406 7.58797 0.882117 -2.63472 -0.506237 4.01691 0 0 0 -0.0575322 -0.147749 0.140203 -0.108319 -0.299715 0.0128119 -0.108287 -0.299726 0.0128227 -0.108255 -0.299737 0.0128333 -0.108222 -0.299749 0.0128437 -0.10819 -0.29976 0.0128539 0 0 0 0 0 0 -0.108158 -0.299771 0.0128639 0 0 0 -0.108125 -0.299782 0.0128738 0 0 0 0 0 0 -0.108093 -0.299794 0.0128834 0 0 0 0 0 0 -0.10806 -0.299805 0.0128929 0 0 0 0 0 0 0 0 0 3.22229 2.27099 -1.85726 0 0 0 0 0 0 0 0 0 0 0 0 -1.07528 7.58512 90.638 -0.737496 -9.80528 -1.19158 0.82106 -0.0533333 -2.78884 0 0 0 0 0 0 0 0 0 0 0 0 0 0 0 0 0 0 0 0 0 0 0 0 0 0 0 0 0 0 -2.37808 4.56405 -92.8362 2.94998 1.38432 0.250255 -0.493955 0.0286067 1.58965 0 0 0 0 0 0 0 0 0 0 0 0 0 0 0 0 0 0 0 0 0 0 0 0 0 0 0 
1.5538 103.072 1.71052 -3.41369 0.499305 -0.210417 0 0 0 -0.406011 0.975101 4.31813 1.00084 -7.1616 -2.02462 -2.005 -0.084922 0.183197 0 0 0 -1.43885 -0.129898 -4.1406 4.13962 7.57185 0.920796 -2.61155 -0.5075 4.03382 0 0 0 -0.0619693 -0.147756 0.136799 -0.117444 -0.295758 0.0086183 -0.117412 -0.29577 0.0086292 -0.117381 -0.295782 0.00863991 -0.117349 -0.295794 0.00865043 -0.117317 -0.295806 0.00866076 0 0 0 0 0 0 -0.117286 -0.295819 0.0086709 0 0 0 -0.117254 -0.295831 0.00868086 0 0 0 0 0 0 -0.117222 -0.295843 0.00869063 0 0 0 0 0 0 -0.117191 -0.295855 0.00870021 0 0 0 0 0 0 0 0 0 3.37872 2.23996 -1.79207 0 0 0 0 0 0 0 0 0 0 0 0 -1.02402 7.61867 90.5975 -0.714833 -9.8747 -1.17388 0.893021 -0.0574845 -2.83008 0 0 0 0 0 0 0 0 0 0 0 0 0 0 0 0 0 0 0 0 0 0 0 0 0 0 0 0 0 0 -2.27517 4.62319 -92.7458 2.80632 1.49148 0.214465 -0.431524 0.0297642 1.66612 0 0 0 0 0 0 0 0 0 0 0 0 0 0 0 0 0 0 0 0 0 0 0 0 0 0 0 
1.53987 103.072 1.69723 -3.42906 0.438321 -0.228832 0 0 0 -0.38602 1.05635 4.34559 0.996721 -7.18548 -2.01465 -1.98883 -0.085602 0.204289 0 0 0 -1.39668 -0.0108366 -4.13402 4.05693 7.51406 0.969071 -2.57917 -0.512036 4.08469 0 0 0 -0.0663711 -0.147758 0.129187 -0.12577 -0.288924 -0.0012805 -0.12574 -0.288937 -0.00126966 -0.12571 -0.28895 -0.00125899 -0.12568 -0.288963 -0.0012485 -0.12565 -0.288976 -0.00123819 0 0 0 0 0 0 -0.12562 -0.288989 -0.00122807 0 0 0 -0.12559 -0.289002 -0.00121812 0 0 0 0 0 0 -0.12556 -0.289015 -0.00120835 0 0 0 0 0 0 -0.12553 -0.289029 -0.00119877 0 0 0 0 0 0 0 0 0 3.53312 2.13022 -1.46873 0 0 0 0 0 0 0 0 0 0 0 0 -0.929406 7.58261 90.6161 -0.699567 -9.83913 -1.20807 0.885549 -0.058201 -2.9001 0 0 0 0 0 0 0 0 0 0 0 0 0 0 0 0 0 0 0 0 0 0 0 0 0 0 0 0 0 0 -2.17753 4.65929 -92.4884 2.65907 1.4818 0.137961 -0.284931 0.0331229 1.84872 0 0 0 0 0 0 0 0 0 0 0 0 0 0 0 0 0 0 0 0 0 0 0 0 0 0 0 
1.52613 103.072 1.68071 -3.4414 0.395949 -0.251688 0 0 0 -0.371877 1.0885 4.38141 0.990376 -7.1558 -2.01398 -1.9816 -0.0857299 0.208741 0 0 0 -1.35043 0.0718631 -4.11979 3.95948 7.47722 1.0131 -2.53339 -0.513494 4.09782 0 0 0 -0.069575 -0.147755 0.120649 -0.132081 -0.279735 -0.0121709 -0.132053 -0.279748 -0.0121602 -0.132025 -0.279762 -0.0121497 -0.131996 -0.279776 -0.0121394 -0.131968 -0.27979 -0.0121292 0 0 0 0 0 0 -0.13194 -0.279803 -0.0121192 0 0 0 -0.131912 -0.279817 -0.0121093 0 0 0 0 0 0 -0.131883 -0.279831 -0.0120997 0 0 0 0 0 0 -0.131855 -0.279845 -0.0120902 0 0 0 0 0 0 0 0 0 3.57886 1.98709 -1.03099 0 0 0 0 0 0 0 0 0 0 0 0 -0.851136 7.49635 90.6759 -0.731306 -9.68922 -1.25394 0.85977 -0.0587314 -3.02207 0 0 0 0 0 0 0 0 0 0 0 0 0 0 0 0 0 0 0 0 0 0 0 0 0 0 0 0 0 0 -2.13997 4.65074 -92.2206 2.58259 1.47673 0.0563819 -0.1292 0.0378706 1.97348 0 0 0 0 0 0 0 0 0 0 0 0 0 0 0 0 0 0 0 0 0 0 0 0 0 0 0 
1.51521 103.073 1.66381 -3.44851 0.386172 -0.271875 0 0 0 -0.375566 1.08337 4.41412 0.9941 -7.11737 -2.01568 -1.98139 -0.0852872 0.195969 0 0 0 -1.31897 0.0754574 -4.10011 3.88788 7.46592 1.03755 -2.48153 -0.511353 4.08772 0 0 0 -0.0714487 -0.147756 0.118662 -0.138028 -0.278899 -0.0180178 -0.138001 -0.278914 -0.0180071 -0.137974 -0.278928 -0.0179965 -0.137947 -0.278942 -0.0179861 -0.13792 -0.278956 -0.0179759 0 0 0 0 0 0 -0.137892 -0.278971 -0.0179658 0 0 0 -0.137864 -0.278985 -0.017956 0 0 0 0 0 0 -0.137837 -0.278999 -0.0179462 0 0 0 0 0 0 -0.13781 -0.279013 -0.0179367 0 0 0 0 0 0 0 0 0 3.57885 1.88869 -0.73281 0 0 0 0 0 0 0 0 0 0 0 0 -0.8133 7.43703 90.7184 -0.819482 -9.47612 -1.25642 0.923642 -0.0633322 -3.09795 0 0 0 0 0 0 0 0 0 0 0 0 0 0 0 0 0 0 0 0 0 0 0 0 0 0 0 0 0 0 -2.12365 4.65643 -92.094 2.59661 1.5158 0.00218135 -0.0588128 0.0402817 1.98767 0 0 0 0 0 0 0 0 0 0 0 0 0 0 0 0 0 0 0 0 0 0 0 0 0 0 0 
